<svg xmlns="http://www.w3.org/2000/svg" viewBox="0 0 64 64">
  <!-- Hearth: a warm flame over a hearthstone. Firelight + nourishment. -->
  <rect width="64" height="64" rx="14" fill="#1A130D"/>
  <!-- the hearthstone -->
  <rect x="16" y="44" width="32" height="6" rx="3" fill="#7E7059"/>
  <!-- the flame -->
  <path d="M32 14c5 6 9 10 9 17a9 9 0 0 1-18 0c0-3 1.6-5.4 3.4-7.5C27 26 29 28 30 30c0-5 1-9 2-11z"
        fill="#E08A4A"/>
  <!-- inner flame -->
  <path d="M32 26c2.4 3 4 5 4 8a4 4 0 0 1-8 0c0-2 1-3.4 2.2-4.8C31 30 32 31 32 32c0-2 0-4 0-6z"
        fill="#F2C48A"/>
</svg>
